# xmcd
#
# Track frame offsets: 
#        150
#        10310
#        15264
#        27838
#        36438
#        52666
#        65053
#        83538
#        100324
#        114754
#        124450
#
# Disc length: 1898 seconds
#
# Revision: 0
# Processed by: cddbd v1.5.2PL0 Copyright (c) Steve Scherf et al.
# Submitted via: ExactAudioCopy v1.3
#
DISCID=7e07680b
DTITLE=三只三支、CC大姐姐、七楼长夏、哇噢太美了、胡牛逼、往后余生都是孟美岐、DoerChan、熙阿花er、shake韵、低糖警报 
DTITLE=/ Sing For Meiqi
DYEAR=2019
DGENRE=Pop
TTITLE0=三只三支 - 嘿，你好
TTITLE1=CC大姐姐 - Meiqi For the Win
TTITLE2=七楼长夏 - 心星
TTITLE3=哇噢太美了 - 慢慢喜欢你
TTITLE4=胡牛逼 - 心动
TTITLE5=往后余生都是孟美岐 - 星光
TTITLE6=DoerChan - 我最闪亮
TTITLE7=熙阿花er - 拜托
TTITLE8=shake韵 - 让我留在你身边
TTITLE9=CC大姐姐 - Dream a Little Dream
TTITLE10=低糖警报 - 时光正好
EXTD=
EXTT0=
EXTT1=
EXTT2=
EXTT3=
EXTT4=
EXTT5=
EXTT6=
EXTT7=
EXTT8=
EXTT9=
EXTT10=
PLAYORDER=
